<svg id="Laag_1" data-name="Laag 1" xmlns="http://www.w3.org/2000/svg" xmlns:xlink="http://www.w3.org/1999/xlink" viewBox="0 0 589.2 650.67"><defs><style>.cls-1{fill:url(#Naamloos_verloop_9);}.cls-2{fill:#f59e21;}.cls-3{fill:url(#Naamloos_verloop_2);}.cls-4{fill:#fff;}.cls-17,.cls-19,.cls-20,.cls-4{opacity:0.5;}.cls-14,.cls-15,.cls-16,.cls-17,.cls-18,.cls-19,.cls-20,.cls-21,.cls-22,.cls-23,.cls-4{isolation:isolate;}.cls-5{fill:url(#Naamloos_verloop_41);}.cls-6{fill:url(#Naamloos_verloop_41-2);}.cls-7{fill:url(#Naamloos_verloop_41-3);}.cls-8{fill:url(#Naamloos_verloop_41-4);}.cls-9{fill:url(#Naamloos_verloop_41-5);}.cls-10{fill:url(#Naamloos_verloop_33);}.cls-11{fill:url(#Naamloos_verloop_33-2);}.cls-12{fill:url(#Naamloos_verloop_33-3);}.cls-13{fill:url(#Naamloos_verloop_25);}.cls-14,.cls-15,.cls-21,.cls-22{opacity:0.3;}.cls-14{fill:url(#radial-gradient);}.cls-15,.cls-16{fill:#e48802;}.cls-16{opacity:0.15;}.cls-17{fill:#de8508;}.cls-18{fill:#a81916;opacity:0.4;}.cls-19{fill:url(#radial-gradient-2);}.cls-20{fill:url(#radial-gradient-3);}.cls-21{fill:url(#radial-gradient-4);}.cls-22{fill:url(#radial-gradient-5);}.cls-23{opacity:0.38;fill:url(#radial-gradient-6);}</style><linearGradient id="Naamloos_verloop_9" x1="334.02" y1="431.71" x2="450.62" y2="234.7" gradientTransform="matrix(1.13, 0, 0, -1.13, -116.43, 574.68)" gradientUnits="userSpaceOnUse"><stop offset="0" stop-color="#fddb6b"/><stop offset="1" stop-color="#ffe378"/></linearGradient><linearGradient id="Naamloos_verloop_2" x1="369.88" y1="262.35" x2="478.36" y2="27.3" gradientTransform="matrix(1.13, 0, 0, -1.13, -116.43, 574.68)" gradientUnits="userSpaceOnUse"><stop offset="0" stop-color="#daa111"/><stop offset="1" stop-color="#e3a314"/></linearGradient><linearGradient id="Naamloos_verloop_41" x1="547.48" y1="441.82" x2="572.65" y2="401.75" gradientTransform="matrix(1, 0, 0, -1, -14.04, 585.14)" gradientUnits="userSpaceOnUse"><stop offset="0" stop-color="#ebcd4e"/><stop offset="1" stop-color="#c14a1b"/></linearGradient><linearGradient id="Naamloos_verloop_41-2" x1="323.1" y1="485.12" x2="334.4" y2="441.29" gradientTransform="matrix(0.81, 0.08, 0.08, -0.8, 87.88, 444.37)" xlink:href="#Naamloos_verloop_41"/><linearGradient id="Naamloos_verloop_41-3" x1="3.45" y1="466.7" x2="125.37" y2="466.7" gradientTransform="matrix(0.45, 0.08, 0.08, -0.45, 173.94, 403.88)" xlink:href="#Naamloos_verloop_41"/><linearGradient id="Naamloos_verloop_41-4" x1="237.75" y1="484.56" x2="255.95" y2="414.24" gradientTransform="matrix(0.65, 0.09, 0.09, -0.64, 169.51, 453.14)" xlink:href="#Naamloos_verloop_41"/><linearGradient id="Naamloos_verloop_41-5" x1="404.76" y1="451.96" x2="504.94" y2="451.96" gradientTransform="matrix(0.72, 0, 0, -0.72, -71.67, 604.19)" xlink:href="#Naamloos_verloop_41"/><linearGradient id="Naamloos_verloop_33" x1="381.28" y1="247.77" x2="436.06" y2="188.96" gradientTransform="matrix(1, 0, 0, -1, -14.04, 585.14)" gradientUnits="userSpaceOnUse"><stop offset="0" stop-color="#783210"/><stop offset="1" stop-color="#f59e21" stop-opacity="0"/></linearGradient><linearGradient id="Naamloos_verloop_33-2" x1="120.76" y1="362.16" x2="219.33" y2="236.94" gradientTransform="matrix(0.53, 0, 0, -0.53, 425.79, 498.18)" xlink:href="#Naamloos_verloop_33"/><linearGradient id="Naamloos_verloop_33-3" x1="264.64" y1="293.96" x2="342.57" y2="220.81" gradientTransform="matrix(0.73, 0, 0, -0.73, 26.76, 641.3)" xlink:href="#Naamloos_verloop_33"/><linearGradient id="Naamloos_verloop_25" x1="-553.86" y1="535.61" x2="-499.05" y2="476.76" gradientTransform="matrix(0.22, 0, 0, -0.22, 705.79, 346.22)" gradientUnits="userSpaceOnUse"><stop offset="0" stop-color="#b67114" stop-opacity="0.97"/><stop offset="1" stop-color="#f59e21" stop-opacity="0"/></linearGradient><radialGradient id="radial-gradient" cx="414.43" cy="228.31" r="50.74" gradientTransform="matrix(1.17, 0, 0, -1.17, -127.8, 615.13)" gradientUnits="userSpaceOnUse"><stop offset="0" stop-color="#b66f14"/><stop offset="1" stop-color="#b66f14" stop-opacity="0"/></radialGradient><radialGradient id="radial-gradient-2" cx="466.78" cy="313.05" r="9.58" gradientTransform="matrix(1.6, 0.63, 0.59, -1.49, -583.91, 352.91)" gradientUnits="userSpaceOnUse"><stop offset="0" stop-color="#fff"/><stop offset="1" stop-color="#fff" stop-opacity="0"/></radialGradient><radialGradient id="radial-gradient-3" cx="751.98" cy="433.78" r="9.58" gradientTransform="matrix(-1.6, 0.63, -0.59, -1.49, 2009.54, 333.57)" xlink:href="#radial-gradient-2"/><radialGradient id="radial-gradient-4" cx="757.35" cy="438.29" r="9.58" gradientTransform="matrix(-1.53, 0.6, -0.56, -1.43, 1670.54, 443.34)" xlink:href="#radial-gradient-2"/><radialGradient id="radial-gradient-5" cx="675.51" cy="435.29" r="9.58" gradientTransform="matrix(-2.07, 1.58, -1.49, -1.45, 2448.32, -78.82)" xlink:href="#radial-gradient-2"/><radialGradient id="radial-gradient-6" cx="703.3" cy="497.77" r="9.58" gradientTransform="matrix(-1.32, 1.01, -0.95, -0.93, 1924.44, 95.36)" xlink:href="#radial-gradient-2"/></defs><title>logo</title><path id="path8719" class="cls-1" d="M305.09,33,69,338.6C58.6,351,58.69,362,58.69,367.73c185.72-57.8,373.74-123.23,589.2-240.51,0-12.54-7.14-16.23-10.7-17.89C606.95,95.21,577,81,543.77,68.21c-14.22,4.78-33,1.84-43.44-7.09a18.87,18.87,0,0,1-6.47-9.84C447.2,37.52,392.75,27.35,323.38,24.08c-11.89.52-12.21,1-18.28,8.91Z" transform="translate(-58.69 -24.08)"/><path id="path9316" class="cls-2" d="M60.53,459.69l57.63-30.86,6.12,2.81-.13,6.76L61.42,464.92Z" transform="translate(-58.69 -24.08)"/><path id="path8721" class="cls-3" d="M641.7,117.68a17,17,0,0,0-6.06,1.56L69.48,347.9c-7.4,2.78-10.78,8.25-10.78,19.34l1.66,83.44,59.91-16.75L60.52,459.71l4.69,215L309.3,564.31c6.21-22.62,27.66-41.52,50.09-43.31h.16c10.81-.82,20,2.49,26.44,8.62L642.77,413.43l5.12-284.91C647.89,123.07,647.36,117.54,641.7,117.68Z" transform="translate(-58.69 -24.08)"/><path id="path9408" class="cls-4" d="M78.07,344.32l195.66-81.62,225.84-89.44L499,175.5,286.58,261.59Z" transform="translate(-58.69 -24.08)"/><path id="path9271" class="cls-5" d="M491.93,176.92c16.3,37.09,79.8,11.65,100.18-40.59C556.9,120.31,479.05,144.69,491.93,176.92Z" transform="translate(-58.69 -24.08)"/><path id="path9281" class="cls-6" d="M340.38,94.45c-16.62,31.8,80.24,34.88,98.65-.28C450.23,72.77,360.86,55.26,340.38,94.45Z" transform="translate(-58.69 -24.08)"/><path id="path9291" class="cls-7" d="M213.53,194.64c-9.11,22.24,48.45,29.6,55.72,4.31C273.15,185.39,223,171.46,213.53,194.64Z" transform="translate(-58.69 -24.08)"/><path id="path9295" class="cls-8" d="M329.65,172.72c-11.75,32.09,70.44,39.47,79.41,3.14C413.87,156.38,341.89,139.27,329.65,172.72Z" transform="translate(-58.69 -24.08)"/><path id="path9299" class="cls-9" d="M221.26,286.57c11,31.37,57,13.07,72.5-29.37C273.2,243.75,229.84,256.53,221.26,286.57Z" transform="translate(-58.69 -24.08)"/><path id="path9320" class="cls-10" d="M343.6,406.8c30.59,36.73,114.42-53.39,86.31-96.73C411.05,281,292.64,345.61,343.6,406.8Z" transform="translate(-58.69 -24.08)"/><path id="path9330" class="cls-11" d="M494.09,364.86c20.1,15.82,66.11-24.58,51-47.65C526.1,288.37,455.69,334.65,494.09,364.86Z" transform="translate(-58.69 -24.08)"/><path id="path9334" class="cls-12" d="M217.77,489.17c27.55,21.68,90.61-33.7,69.84-65.32C261.64,384.34,165.14,447.76,217.77,489.17Z" transform="translate(-58.69 -24.08)"/><path id="path9338" class="cls-13" d="M578.54,243.64c8.29,6.52,27.24-10.13,21-19.64C591.74,212.12,562.72,231.19,578.54,243.64Z" transform="translate(-58.69 -24.08)"/><path id="path9342" class="cls-14" d="M399.92,304.65c-38.14,9.41-92.13,55.15-58.22,99.75a59.52,59.52,0,0,0,62.16-95.56l-.16-.19C402.5,307.24,401.22,305.92,399.92,304.65Z" transform="translate(-58.69 -24.08)"/><path id="path9363" class="cls-15" d="M404.17,361.18c-15.69,27.22-51.59,42.57-72.81,19.63.17,1.23.41,2.45.69,3.69C360.78,412.35,398.56,381.21,404.17,361.18Z" transform="translate(-58.69 -24.08)"/><path id="path9365" class="cls-16" d="M262.73,458.65C250,480.76,220.06,492.8,204,471.24a31.83,31.83,0,0,0,2.34,5.12C228.69,498.66,258.35,474.29,262.73,458.65Z" transform="translate(-58.69 -24.08)"/><path id="path9403" class="cls-17" d="M642.83,410.56,385.14,528.87c.28.25.57.49.84.75L642.77,413.43ZM309.7,562.9,65.14,671.68l.06,3.06L309.3,564.31C309.42,563.84,309.56,563.36,309.7,562.9Z" transform="translate(-58.69 -24.08)"/><path id="path9417" class="cls-18" d="M410.48,302.24c-33-1.09-93.23,39.56-78.19,83.22C320.64,339,390,297.19,419.52,303.56A31.3,31.3,0,0,0,410.48,302.24Z" transform="translate(-58.69 -24.08)"/><path id="path9422" class="cls-19" d="M364.28,175.79a14.67,14.67,0,0,1-9.75,19.46,17.36,17.36,0,0,1-21-10.22,14.67,14.67,0,0,1,9.75-19.46,17.36,17.36,0,0,1,21,10.16" transform="translate(-58.69 -24.08)"/><path id="path9433" class="cls-20" d="M532.95,156.45a14.67,14.67,0,0,0,9.75,19.46,17.36,17.36,0,0,0,21-10.21,14.67,14.67,0,0,0-9.75-19.46,17.36,17.36,0,0,0-21,10.16" transform="translate(-58.69 -24.08)"/><path id="path9437" class="cls-21" d="M250.21,271a14,14,0,0,0,9.31,18.57,16.57,16.57,0,0,0,20-9.75,14,14,0,0,0-9.31-18.57,16.58,16.58,0,0,0-20,9.7" transform="translate(-58.69 -24.08)"/><path id="path9441" class="cls-22" d="M381.15,360c-1,11.27,9,19.26,22.41,17.83s25.16-11.71,26.21-23-9-19.26-22.41-17.83-25.11,11.66-26.21,22.91" transform="translate(-58.69 -24.08)"/><path id="path9445" class="cls-23" d="M508.88,345.65c-.67,7.2,5.74,12.29,14.31,11.38s16.06-7.48,16.73-14.67-5.74-12.29-14.31-11.38-16,7.45-16.73,14.62" transform="translate(-58.69 -24.08)"/></svg>